<svg width="1111" height="200" viewBox="0 0 1111 200" fill="none" xmlns="http://www.w3.org/2000/svg">
<path fill-rule="evenodd" clip-rule="evenodd" d="M996 32.0288H982V89.0288C986.971 89.0288 991 93.0582 991 98.0288C991 102.999 986.971 107.029 982 107.029V164.029H996C1032.45 164.029 1062 134.48 1062 98.0288C1062 61.578 1032.45 32.0288 996 32.0288Z" fill="#F2F2F2"/>
<path d="M1010.09 83.8558C1009.3 83.3378 1008.27 83.0298 1007.36 83.0298C1006.66 83.0298 1006.25 83.3098 1006.24 83.8558C1006.19 85.3118 1011.04 84.6398 1011.04 87.9578C1011.04 90.1138 1009.48 91.1498 1007.45 91.1498C1004.95 91.1498 1003.59 89.9178 1003.59 89.9178L1004.61 88.1398C1005.19 88.5598 1005.98 89.1198 1007.31 89.1198C1008.24 89.1198 1008.71 88.8258 1008.71 88.2098C1008.71 86.6558 1003.94 87.1458 1003.94 83.9258C1003.94 82.0078 1005.47 81.0698 1007.41 81.0698C1008.85 81.0698 1010.2 81.6298 1010.93 82.0918L1010.09 83.8558ZM1015.56 81.2098C1018.2 81.2098 1020.16 82.5818 1020.16 85.8298C1020.16 89.4138 1018.1 91.0098 1015.38 91.0098H1012.01V81.2098H1015.56ZM1014.32 83.1138V89.0218H1015.35C1017.29 89.0218 1017.85 87.6778 1017.85 85.9278C1017.85 83.9958 1017.1 83.1138 1015.48 83.1138H1014.32ZM1027.39 81.1258C1029.39 81.1258 1031.18 82.5258 1031.18 85.9138C1031.18 89.1618 1029.95 91.0938 1027.39 91.0938C1024.89 91.0938 1023.52 89.2038 1023.52 85.9138C1023.52 82.5538 1025.34 81.1258 1027.39 81.1258ZM1027.37 83.0438C1026.55 83.0438 1025.85 83.8558 1025.85 85.9138C1025.85 88.2378 1026.36 89.1478 1027.37 89.1478C1028.38 89.1478 1028.88 88.2378 1028.88 85.9138C1028.88 83.8278 1028.18 83.0438 1027.37 83.0438ZM1034.74 81.2098H1037.05V89.0218H1040.48V91.0098H1034.74V81.2098ZM995.099 105.06H997.045L997.451 103.1H998.277L997.857 105.06H999.957L1000.38 103.1H1001.17L1000.77 105.06H1002.43V105.816H1000.6L1000.11 108.084H1001.97V108.826H999.957L999.495 111.01H998.697L999.145 108.826H997.045L996.597 111.01H995.771L996.233 108.826H994.637V108.084H996.387L996.877 105.816H995.099V105.06ZM997.689 105.816L997.213 108.084H999.313L999.789 105.816H997.689ZM1004.32 101.21H1009.99L1009.86 102.19H1005.51V105.634H1009.61L1009.57 106.642H1005.51V111.01H1004.32V101.21ZM1011.72 103.548C1011.78 102.974 1012.48 101.112 1014.87 101.14C1016.86 101.154 1017.76 102.302 1017.76 103.688C1017.76 105.508 1016.51 106.166 1015.27 106.964C1013.59 108.042 1012.87 108.714 1012.93 110.03H1017.73L1017.56 111.01H1011.75C1011.47 108.336 1012.87 107.23 1014.55 106.18C1015.42 105.648 1016.58 105.06 1016.58 103.744C1016.58 102.596 1015.91 102.134 1014.78 102.134C1012.94 102.134 1012.84 103.898 1012.84 103.898L1011.72 103.548ZM1019.97 101.21H1025.64L1025.52 102.19H1021.16V105.634H1025.26L1025.22 106.642H1021.16V111.01H1019.97V101.21ZM1027.38 103.548C1027.43 102.974 1028.13 101.112 1030.53 101.14C1032.52 101.154 1033.41 102.302 1033.41 103.688C1033.41 105.508 1032.17 106.166 1030.92 106.964C1029.24 108.042 1028.53 108.714 1028.58 110.03H1033.38L1033.22 111.01H1027.41C1027.13 108.336 1028.53 107.23 1030.21 106.18C1031.07 105.648 1032.24 105.06 1032.24 103.744C1032.24 102.596 1031.56 102.134 1030.43 102.134C1028.6 102.134 1028.5 103.898 1028.5 103.898L1027.38 103.548ZM1035.63 101.21H1041.3L1041.17 102.19H1036.82V105.634H1040.92L1040.88 106.642H1036.82V111.01H1035.63V101.21ZM1043.03 103.548C1043.09 102.974 1043.79 101.112 1046.18 101.14C1048.17 101.154 1049.07 102.302 1049.07 103.688C1049.07 105.508 1047.82 106.166 1046.57 106.964C1044.89 108.042 1044.18 108.714 1044.24 110.03H1049.04L1048.87 111.01H1043.06C1042.78 108.336 1044.18 107.23 1045.86 106.18C1046.73 105.648 1047.89 105.06 1047.89 103.744C1047.89 102.596 1047.22 102.134 1046.08 102.134C1044.25 102.134 1044.15 103.898 1044.15 103.898L1043.03 103.548Z" fill="black"/>
<rect width="94" height="57" transform="translate(418 32.0288)" fill="#BF394D"/>
<path d="M436.41 60.0769H438.356L438.762 58.1169H439.588L439.168 60.0769H441.268L441.688 58.1169H442.486L442.08 60.0769H443.746V60.8329H441.912L441.422 63.1009H443.284V63.8429H441.268L440.806 66.0269H440.008L440.456 63.8429H438.356L437.908 66.0269H437.082L437.544 63.8429H435.948V63.1009H437.698L438.188 60.8329H436.41V60.0769ZM439 60.8329L438.524 63.1009H440.624L441.1 60.8329H439ZM449.298 56.2269C451.174 56.2269 452.308 56.9829 452.308 58.6069C452.308 59.7689 451.594 60.6229 450.852 60.8469C451.692 61.0709 452.574 61.8689 452.574 63.2829C452.574 64.8089 451.664 66.0269 449.452 66.0269H445.63V56.2269H449.298ZM446.82 57.2069V60.4129H449.214C450.376 60.4129 451.118 59.8669 451.118 58.7189C451.118 57.6969 450.488 57.2069 449.326 57.2069H446.82ZM446.82 61.4209V65.0189H449.48C450.628 65.0189 451.356 64.4589 451.384 63.2549C451.412 61.9669 450.544 61.4209 449.228 61.4209H446.82ZM454.544 56.2269H460.214L460.088 57.2069H455.734V60.6509H459.836L459.794 61.6589H455.734V66.0269H454.544V56.2269ZM461.949 58.6209C461.991 58.0329 462.579 56.1289 465.029 56.1569C466.807 56.1709 467.871 57.1089 467.885 58.6489C467.913 60.2589 466.737 60.8189 466.009 60.8749C466.723 60.9309 468.123 61.4069 468.123 63.2549C468.123 64.8509 466.905 66.0969 465.001 66.1109C462.369 66.1389 461.851 64.2629 461.809 63.6749L462.957 63.3389C462.957 63.3389 462.985 65.1029 464.917 65.1029C466.079 65.1029 466.933 64.4729 466.933 63.1569C466.933 61.0289 464.147 61.3789 464.147 61.3789V60.4689C464.147 60.4689 466.709 60.7769 466.709 58.7749C466.709 57.7109 466.079 57.1509 464.973 57.1509C463.069 57.1649 463.083 58.9709 463.083 58.9709L461.949 58.6209ZM470.583 63.5769C470.583 63.6749 470.723 65.1869 472.375 65.1869C474.041 65.1869 474.783 63.7169 474.783 61.3649C474.503 61.8549 473.733 62.6669 472.431 62.6809C470.583 62.6949 469.379 61.6869 469.379 59.5169C469.379 57.5009 470.695 56.1569 472.725 56.1989C474.685 56.2409 476.001 57.4029 475.987 61.0009C475.987 63.6609 475.315 66.1529 472.361 66.1529C470.163 66.1529 469.603 64.3749 469.519 63.9549L470.583 63.5769ZM472.641 57.1089C471.353 57.1089 470.541 58.0609 470.541 59.4889C470.541 61.1829 471.297 61.8269 472.585 61.8269C473.635 61.8269 474.769 60.9729 474.769 59.5029C474.769 58.0329 473.901 57.1089 472.641 57.1089ZM481.561 56.2129H482.933V62.2749H484.347L484.249 63.2829H482.933V66.0269H481.757V63.2829H477.235V62.0929L481.561 56.2129ZM481.743 57.5149L478.285 62.2749H481.743V57.5149ZM489.124 56.2269C491.756 56.2269 493.786 57.5989 493.786 60.8469C493.786 64.4309 491.658 66.0269 488.942 66.0269H486.03V56.2269H489.124ZM487.22 57.2069V65.0189H488.984C491.476 65.0189 492.582 63.2129 492.582 60.9169C492.582 58.3689 491.21 57.2069 489.11 57.2069H487.22Z" fill="white"/>
<rect width="94" height="57" transform="translate(888 32.0288)" fill="#EFD5C6"/>
<path d="M906.487 60.0769H908.433L908.839 58.1169H909.665L909.245 60.0769H911.345L911.765 58.1169H912.563L912.157 60.0769H913.823V60.8329H911.989L911.499 63.1009H913.361V63.8429H911.345L910.883 66.0269H910.085L910.533 63.8429H908.433L907.985 66.0269H907.159L907.621 63.8429H906.025V63.1009H907.775L908.265 60.8329H906.487V60.0769ZM909.077 60.8329L908.601 63.1009H910.701L911.177 60.8329H909.077ZM915.706 56.2269H921.404L921.264 57.2069H916.896V60.4689H921.054V61.4629H916.896V65.0189H921.432V66.0269H915.706V56.2269ZM923.472 56.2269H929.142L929.016 57.2069H924.662V60.6509H928.764L928.722 61.6589H924.662V66.0269H923.472V56.2269ZM934.167 56.2269C936.799 56.2269 938.829 57.5989 938.829 60.8469C938.829 64.4309 936.701 66.0269 933.985 66.0269H931.073V56.2269H934.167ZM932.263 57.2069V65.0189H934.027C936.519 65.0189 937.625 63.2129 937.625 60.9169C937.625 58.3689 936.253 57.2069 934.153 57.2069H932.263ZM941.517 56.2269H946.613L946.459 57.2069H942.553L942.175 60.6089C942.455 60.2029 943.099 59.7829 944.107 59.7829C945.703 59.7689 947.019 60.7769 947.005 62.7509C946.991 64.3329 946.081 66.0829 943.813 66.1109C941.265 66.1389 940.649 64.3049 940.593 63.7309L941.713 63.3669C941.713 63.3669 941.713 65.1169 943.729 65.1169C945.087 65.1169 945.829 64.1789 945.829 62.7649C945.829 61.4629 945.101 60.7349 943.953 60.6929C942.889 60.6509 942.259 61.3369 942.091 61.6309L940.957 61.4629L941.517 56.2269ZM955.827 59.0969C955.421 57.8229 954.539 57.0809 953.055 57.0809C951.305 57.0809 949.849 58.2569 949.849 61.0849C949.849 63.2829 950.829 65.1449 953.013 65.1449C954.343 65.1449 955.309 64.4869 955.841 63.2829L956.849 63.7729C956.093 65.3129 954.749 66.1669 952.999 66.1669C950.185 66.1669 948.659 64.0669 948.659 61.1409C948.659 57.6549 950.703 56.0869 953.083 56.0869C954.875 56.0869 956.275 57.0109 956.821 58.6069L955.827 59.0969ZM963.699 58.7329C963.699 58.6349 963.587 57.1229 961.949 57.1229C960.269 57.1229 959.541 58.5929 959.541 60.9449C959.807 60.4549 960.577 59.6429 961.879 59.6289C963.727 59.6149 964.945 60.6229 964.945 62.7929C964.945 64.8089 963.615 66.1529 961.585 66.1109C959.625 66.0689 958.309 64.9069 958.323 61.3089C958.323 58.6489 958.995 56.1569 961.949 56.1569C964.147 56.1569 964.679 57.9349 964.749 58.3549L963.699 58.7329ZM961.739 60.4829C960.675 60.4829 959.541 61.3369 959.541 62.8069C959.541 64.2769 960.423 65.2009 961.669 65.2009C962.957 65.2009 963.769 64.2489 963.769 62.8209C963.769 61.1269 963.013 60.4829 961.739 60.4829Z" fill="black"/>
<rect width="94" height="57" transform="translate(794 32.0288)" fill="#E9B8A6"/>
<path d="M812.205 60.0769H814.151L814.557 58.1169H815.383L814.963 60.0769H817.063L817.483 58.1169H818.281L817.875 60.0769H819.541V60.8329H817.707L817.217 63.1009H819.079V63.8429H817.063L816.601 66.0269H815.803L816.251 63.8429H814.151L813.703 66.0269H812.877L813.339 63.8429H811.743V63.1009H813.493L813.983 60.8329H812.205V60.0769ZM814.795 60.8329L814.319 63.1009H816.419L816.895 60.8329H814.795ZM821.425 56.2269H827.123L826.983 57.2069H822.615V60.4689H826.773V61.4629H822.615V65.0189H827.151V66.0269H821.425V56.2269ZM829.848 63.5769C829.848 63.6749 829.988 65.1869 831.64 65.1869C833.306 65.1869 834.048 63.7169 834.048 61.3649C833.768 61.8549 832.998 62.6669 831.696 62.6809C829.848 62.6949 828.644 61.6869 828.644 59.5169C828.644 57.5009 829.96 56.1569 831.99 56.1989C833.95 56.2409 835.266 57.4029 835.252 61.0009C835.252 63.6609 834.58 66.1529 831.626 66.1529C829.428 66.1529 828.868 64.3749 828.784 63.9549L829.848 63.5769ZM831.906 57.1089C830.618 57.1089 829.806 58.0609 829.806 59.4889C829.806 61.1829 830.562 61.8269 831.85 61.8269C832.9 61.8269 834.034 60.9729 834.034 59.5029C834.034 58.0329 833.166 57.1089 831.906 57.1089ZM840.911 56.2269C842.787 56.2269 843.921 56.9829 843.921 58.6069C843.921 59.7689 843.207 60.6229 842.465 60.8469C843.305 61.0709 844.187 61.8689 844.187 63.2829C844.187 64.8089 843.277 66.0269 841.065 66.0269H837.243V56.2269H840.911ZM838.433 57.2069V60.4129H840.827C841.989 60.4129 842.731 59.8669 842.731 58.7189C842.731 57.6969 842.101 57.2069 840.939 57.2069H838.433ZM838.433 61.4209V65.0189H841.093C842.241 65.0189 842.969 64.4589 842.997 63.2549C843.025 61.9669 842.157 61.4209 840.841 61.4209H838.433ZM847.431 60.6789C846.451 60.2169 846.003 59.5589 846.017 58.6349C846.045 56.8429 847.655 56.1569 849.055 56.1569C850.455 56.1569 851.883 56.8429 851.883 58.4809C851.883 59.6429 851.169 60.4269 850.441 60.7629C851.631 61.1829 852.317 61.9109 852.317 63.0729C852.317 65.0469 850.749 66.1109 848.929 66.1109C846.941 66.1109 845.527 65.1309 845.625 63.1709C845.681 61.9109 846.717 60.9869 847.431 60.6789ZM847.179 58.6769C847.221 59.5869 847.935 59.9509 849.573 60.3429C850.007 60.1049 850.665 59.5729 850.721 58.6489C850.777 57.7529 850.259 57.0389 848.985 57.0389C847.935 57.0389 847.137 57.6409 847.179 58.6769ZM848.285 61.0849C847.445 61.6029 846.829 62.1909 846.829 63.1989C846.829 64.8509 847.935 65.1869 848.957 65.2009C850.259 65.2149 851.141 64.2769 851.141 63.1149C851.141 61.8829 849.741 61.4909 848.285 61.0849ZM857.136 56.2269H858.704L862.288 66.0269H861.028L860.104 63.4229H855.666L854.742 66.0269H853.496L857.136 56.2269ZM857.85 57.5569L856.03 62.4149H859.74L857.962 57.5569H857.85ZM868.98 58.7329C868.98 58.6349 868.868 57.1229 867.23 57.1229C865.55 57.1229 864.822 58.5929 864.822 60.9449C865.088 60.4549 865.858 59.6429 867.16 59.6289C869.008 59.6149 870.226 60.6229 870.226 62.7929C870.226 64.8089 868.896 66.1529 866.866 66.1109C864.906 66.0689 863.59 64.9069 863.604 61.3089C863.604 58.6489 864.276 56.1569 867.23 56.1569C869.428 56.1569 869.96 57.9349 870.03 58.3549L868.98 58.7329ZM867.02 60.4829C865.956 60.4829 864.822 61.3369 864.822 62.8069C864.822 64.2769 865.704 65.2009 866.95 65.2009C868.238 65.2009 869.05 64.2489 869.05 62.8209C869.05 61.1269 868.294 60.4829 867.02 60.4829Z" fill="black"/>
<rect width="94" height="57" transform="translate(700 32.0288)" fill="#E19A8C"/>
<path d="M719.184 60.0769H721.13L721.536 58.1169H722.362L721.942 60.0769H724.042L724.462 58.1169H725.26L724.854 60.0769H726.52V60.8329H724.686L724.196 63.1009H726.058V63.8429H724.042L723.58 66.0269H722.782L723.23 63.8429H721.13L720.682 66.0269H719.856L720.318 63.8429H718.722V63.1009H720.472L720.962 60.8329H719.184V60.0769ZM721.774 60.8329L721.298 63.1009H723.398L723.874 60.8329H721.774ZM728.403 56.2269H734.101L733.961 57.2069H729.593V60.4689H733.751V61.4629H729.593V65.0189H734.129V66.0269H728.403V56.2269ZM736.771 56.2269H739.627V66.0269H738.451V57.2069H736.771V56.2269ZM743.061 63.5769C743.061 63.6749 743.201 65.1869 744.853 65.1869C746.519 65.1869 747.261 63.7169 747.261 61.3649C746.981 61.8549 746.211 62.6669 744.909 62.6809C743.061 62.6949 741.857 61.6869 741.857 59.5169C741.857 57.5009 743.173 56.1569 745.203 56.1989C747.163 56.2409 748.479 57.4029 748.465 61.0009C748.465 63.6609 747.793 66.1529 744.839 66.1529C742.641 66.1529 742.081 64.3749 741.997 63.9549L743.061 63.5769ZM745.119 57.1089C743.831 57.1089 743.019 58.0609 743.019 59.4889C743.019 61.1829 743.775 61.8269 745.063 61.8269C746.113 61.8269 747.247 60.9729 747.247 59.5029C747.247 58.0329 746.379 57.1089 745.119 57.1089ZM753.382 56.2269H754.95L758.534 66.0269H757.274L756.35 63.4229H751.912L750.988 66.0269H749.742L753.382 56.2269ZM754.096 57.5569L752.276 62.4149H755.986L754.208 57.5569H754.096ZM761.642 60.6789C760.662 60.2169 760.214 59.5589 760.228 58.6349C760.256 56.8429 761.866 56.1569 763.266 56.1569C764.666 56.1569 766.094 56.8429 766.094 58.4809C766.094 59.6429 765.38 60.4269 764.652 60.7629C765.842 61.1829 766.528 61.9109 766.528 63.0729C766.528 65.0469 764.96 66.1109 763.14 66.1109C761.152 66.1109 759.738 65.1309 759.836 63.1709C759.892 61.9109 760.928 60.9869 761.642 60.6789ZM761.39 58.6769C761.432 59.5869 762.146 59.9509 763.784 60.3429C764.218 60.1049 764.876 59.5729 764.932 58.6489C764.988 57.7529 764.47 57.0389 763.196 57.0389C762.146 57.0389 761.348 57.6409 761.39 58.6769ZM762.496 61.0849C761.656 61.6029 761.04 62.1909 761.04 63.1989C761.04 64.8509 762.146 65.1869 763.168 65.2009C764.47 65.2149 765.352 64.2769 765.352 63.1149C765.352 61.8829 763.952 61.4909 762.496 61.0849ZM775.183 59.0969C774.777 57.8229 773.895 57.0809 772.411 57.0809C770.661 57.0809 769.205 58.2569 769.205 61.0849C769.205 63.2829 770.185 65.1449 772.369 65.1449C773.699 65.1449 774.665 64.4869 775.197 63.2829L776.205 63.7729C775.449 65.3129 774.105 66.1669 772.355 66.1669C769.541 66.1669 768.015 64.0669 768.015 61.1409C768.015 57.6549 770.059 56.0869 772.439 56.0869C774.231 56.0869 775.631 57.0109 776.177 58.6069L775.183 59.0969Z" fill="black"/>
<rect width="94" height="57" transform="translate(606 32.0288)" fill="#D87C75"/>
<path d="M624.315 60.0769H626.261L626.667 58.1169H627.493L627.073 60.0769H629.173L629.593 58.1169H630.391L629.985 60.0769H631.651V60.8329H629.817L629.327 63.1009H631.189V63.8429H629.173L628.711 66.0269H627.913L628.361 63.8429H626.261L625.813 66.0269H624.987L625.449 63.8429H623.853V63.1009H625.603L626.093 60.8329H624.315V60.0769ZM626.905 60.8329L626.429 63.1009H628.529L629.005 60.8329H626.905ZM636.628 56.2269C639.26 56.2269 641.29 57.5989 641.29 60.8469C641.29 64.4309 639.162 66.0269 636.446 66.0269H633.534V56.2269H636.628ZM634.724 57.2069V65.0189H636.488C638.98 65.0189 640.086 63.2129 640.086 60.9169C640.086 58.3689 638.714 57.2069 636.614 57.2069H634.724ZM644.748 60.6789C643.768 60.2169 643.32 59.5589 643.334 58.6349C643.362 56.8429 644.972 56.1569 646.372 56.1569C647.772 56.1569 649.2 56.8429 649.2 58.4809C649.2 59.6429 648.486 60.4269 647.758 60.7629C648.948 61.1829 649.634 61.9109 649.634 63.0729C649.634 65.0469 648.066 66.1109 646.246 66.1109C644.258 66.1109 642.844 65.1309 642.942 63.1709C642.998 61.9109 644.034 60.9869 644.748 60.6789ZM644.496 58.6769C644.538 59.5869 645.252 59.9509 646.89 60.3429C647.324 60.1049 647.982 59.5729 648.038 58.6489C648.094 57.7529 647.576 57.0389 646.302 57.0389C645.252 57.0389 644.454 57.6409 644.496 58.6769ZM645.602 61.0849C644.762 61.6029 644.146 62.1909 644.146 63.1989C644.146 64.8509 645.252 65.1869 646.274 65.2009C647.576 65.2149 648.458 64.2769 648.458 63.1149C648.458 61.8829 647.058 61.4909 645.602 61.0849ZM650.661 56.2269H656.261L656.527 57.0669L652.663 66.0269H651.403L655.295 57.2069H650.661V56.2269ZM665.644 59.0969C665.238 57.8229 664.356 57.0809 662.872 57.0809C661.122 57.0809 659.666 58.2569 659.666 61.0849C659.666 63.2829 660.646 65.1449 662.83 65.1449C664.16 65.1449 665.126 64.4869 665.658 63.2829L666.666 63.7729C665.91 65.3129 664.566 66.1669 662.816 66.1669C660.002 66.1669 658.476 64.0669 658.476 61.1409C658.476 57.6549 660.52 56.0869 662.9 56.0869C664.692 56.0869 666.092 57.0109 666.638 58.6069L665.644 59.0969ZM668.489 56.2269H674.089L674.355 57.0669L670.491 66.0269H669.231L673.123 57.2069H668.489V56.2269ZM676.517 56.2269H681.613L681.459 57.2069H677.553L677.175 60.6089C677.455 60.2029 678.099 59.7829 679.107 59.7829C680.703 59.7689 682.019 60.7769 682.005 62.7509C681.991 64.3329 681.081 66.0829 678.813 66.1109C676.265 66.1389 675.649 64.3049 675.593 63.7309L676.713 63.3669C676.713 63.3669 676.713 65.1169 678.729 65.1169C680.087 65.1169 680.829 64.1789 680.829 62.7649C680.829 61.4629 680.101 60.7349 678.953 60.6929C677.889 60.6509 677.259 61.3369 677.091 61.6309L675.957 61.4629L676.517 56.2269Z" fill="black"/>
<rect width="94" height="57" transform="translate(512 32.0288)" fill="#CF5B5E"/>
<path d="M530.499 60.0769H532.445L532.851 58.1169H533.677L533.257 60.0769H535.357L535.777 58.1169H536.575L536.169 60.0769H537.835V60.8329H536.001L535.511 63.1009H537.373V63.8429H535.357L534.895 66.0269H534.097L534.545 63.8429H532.445L531.997 66.0269H531.171L531.633 63.8429H530.037V63.1009H531.787L532.277 60.8329H530.499V60.0769ZM533.089 60.8329L532.613 63.1009H534.713L535.189 60.8329H533.089ZM546.481 59.0969C546.075 57.8229 545.193 57.0809 543.709 57.0809C541.959 57.0809 540.503 58.2569 540.503 61.0849C540.503 63.2829 541.483 65.1449 543.667 65.1449C544.997 65.1449 545.963 64.4869 546.495 63.2829L547.503 63.7729C546.747 65.3129 545.403 66.1669 543.653 66.1669C540.839 66.1669 539.313 64.0669 539.313 61.1409C539.313 57.6549 541.357 56.0869 543.737 56.0869C545.529 56.0869 546.929 57.0109 547.475 58.6069L546.481 59.0969ZM549.494 56.2269H555.164L555.038 57.2069H550.684V60.6509H554.786L554.744 61.6589H550.684V66.0269H549.494V56.2269ZM557.6 56.2269H562.696L562.542 57.2069H558.636L558.258 60.6089C558.538 60.2029 559.182 59.7829 560.19 59.7829C561.786 59.7689 563.102 60.7769 563.088 62.7509C563.074 64.3329 562.164 66.0829 559.896 66.1109C557.348 66.1389 556.732 64.3049 556.676 63.7309L557.796 63.3669C557.796 63.3669 557.796 65.1169 559.812 65.1169C561.17 65.1169 561.912 64.1789 561.912 62.7649C561.912 61.4629 561.184 60.7349 560.036 60.6929C558.972 60.6509 558.342 61.3369 558.174 61.6309L557.04 61.4629L557.6 56.2269ZM568.816 56.2269C570.692 56.2269 571.826 56.9829 571.826 58.6069C571.826 59.7689 571.112 60.6229 570.37 60.8469C571.21 61.0709 572.092 61.8689 572.092 63.2829C572.092 64.8089 571.182 66.0269 568.97 66.0269H565.148V56.2269H568.816ZM566.338 57.2069V60.4129H568.732C569.894 60.4129 570.636 59.8669 570.636 58.7189C570.636 57.6969 570.006 57.2069 568.844 57.2069H566.338ZM566.338 61.4209V65.0189H568.998C570.146 65.0189 570.874 64.4589 570.902 63.2549C570.93 61.9669 570.062 61.4209 568.746 61.4209H566.338ZM574.566 56.2269H579.662L579.508 57.2069H575.602L575.224 60.6089C575.504 60.2029 576.148 59.7829 577.156 59.7829C578.752 59.7689 580.068 60.7769 580.054 62.7509C580.04 64.3329 579.13 66.0829 576.862 66.1109C574.314 66.1389 573.698 64.3049 573.642 63.7309L574.762 63.3669C574.762 63.3669 574.762 65.1169 576.778 65.1169C578.136 65.1169 578.878 64.1789 578.878 62.7649C578.878 61.4629 578.15 60.7349 577.002 60.6929C575.938 60.6509 575.308 61.3369 575.14 61.6309L574.006 61.4629L574.566 56.2269ZM582.115 56.2269H587.813L587.673 57.2069H583.305V60.4689H587.463V61.4629H583.305V65.0189H587.841V66.0269H582.115V56.2269Z" fill="white"/>
<rect width="94" height="57" transform="translate(324 32.0288)" fill="#A22545"/>
<path d="M343.266 60.0769H345.212L345.618 58.1169H346.444L346.024 60.0769H348.124L348.544 58.1169H349.342L348.936 60.0769H350.602V60.8329H348.768L348.278 63.1009H350.14V63.8429H348.124L347.662 66.0269H346.864L347.312 63.8429H345.212L344.764 66.0269H343.938L344.4 63.8429H342.804V63.1009H344.554L345.044 60.8329H343.266V60.0769ZM345.856 60.8329L345.38 63.1009H347.48L347.956 60.8329H345.856ZM355.411 56.2269H356.979L360.563 66.0269H359.303L358.379 63.4229H353.941L353.017 66.0269H351.771L355.411 56.2269ZM356.125 57.5569L354.305 62.4149H358.015L356.237 57.5569H356.125ZM362.201 58.5649C362.257 57.9909 362.957 56.1289 365.351 56.1569C367.339 56.1709 368.235 57.3189 368.235 58.7049C368.235 60.5249 366.989 61.1829 365.743 61.9809C364.063 63.0589 363.349 63.7309 363.405 65.0469H368.207L368.039 66.0269H362.229C361.949 63.3529 363.349 62.2469 365.029 61.1969C365.897 60.6649 367.059 60.0769 367.059 58.7609C367.059 57.6129 366.387 57.1509 365.253 57.1509C363.419 57.1509 363.321 58.9149 363.321 58.9149L362.201 58.5649ZM370.254 58.5649C370.31 57.9909 371.01 56.1289 373.404 56.1569C375.392 56.1709 376.288 57.3189 376.288 58.7049C376.288 60.5249 375.042 61.1829 373.796 61.9809C372.116 63.0589 371.402 63.7309 371.458 65.0469H376.26L376.092 66.0269H370.282C370.002 63.3529 371.402 62.2469 373.082 61.1969C373.95 60.6649 375.112 60.0769 375.112 58.7609C375.112 57.6129 374.44 57.1509 373.306 57.1509C371.472 57.1509 371.374 58.9149 371.374 58.9149L370.254 58.5649ZM378.733 56.2269H383.829L383.675 57.2069H379.769L379.391 60.6089C379.671 60.2029 380.315 59.7829 381.323 59.7829C382.919 59.7689 384.235 60.7769 384.221 62.7509C384.207 64.3329 383.297 66.0829 381.029 66.1109C378.481 66.1389 377.865 64.3049 377.809 63.7309L378.929 63.3669C378.929 63.3669 378.929 65.1169 380.945 65.1169C382.303 65.1169 383.045 64.1789 383.045 62.7649C383.045 61.4629 382.317 60.7349 381.169 60.6929C380.105 60.6509 379.475 61.3369 379.307 61.6309L378.173 61.4629L378.733 56.2269ZM389.729 56.2129H391.101V62.2749H392.515L392.417 63.2829H391.101V66.0269H389.925V63.2829H385.403V62.0929L389.729 56.2129ZM389.911 57.5149L386.453 62.2749H389.911V57.5149ZM394.565 56.2269H399.661L399.507 57.2069H395.601L395.223 60.6089C395.503 60.2029 396.147 59.7829 397.155 59.7829C398.751 59.7689 400.067 60.7769 400.053 62.7509C400.039 64.3329 399.129 66.0829 396.861 66.1109C394.313 66.1389 393.697 64.3049 393.641 63.7309L394.761 63.3669C394.761 63.3669 394.761 65.1169 396.777 65.1169C398.135 65.1169 398.877 64.1789 398.877 62.7649C398.877 61.4629 398.149 60.7349 397.001 60.6929C395.937 60.6509 395.307 61.3369 395.139 61.6309L394.005 61.4629L394.565 56.2269Z" fill="white"/>
<rect width="94" height="57" transform="translate(230 32.0288)" fill="#841039"/>
<path d="M251.255 60.0769H253.201L253.607 58.1169H254.433L254.013 60.0769H256.113L256.533 58.1169H257.331L256.925 60.0769H258.591V60.8329H256.757L256.267 63.1009H258.129V63.8429H256.113L255.651 66.0269H254.853L255.301 63.8429H253.201L252.753 66.0269H251.927L252.389 63.8429H250.793V63.1009H252.543L253.033 60.8329H251.255V60.0769ZM253.845 60.8329L253.369 63.1009H255.469L255.945 60.8329H253.845ZM261.749 60.6789C260.769 60.2169 260.321 59.5589 260.335 58.6349C260.363 56.8429 261.973 56.1569 263.373 56.1569C264.773 56.1569 266.201 56.8429 266.201 58.4809C266.201 59.6429 265.487 60.4269 264.759 60.7629C265.949 61.1829 266.635 61.9109 266.635 63.0729C266.635 65.0469 265.067 66.1109 263.247 66.1109C261.259 66.1109 259.845 65.1309 259.943 63.1709C259.999 61.9109 261.035 60.9869 261.749 60.6789ZM261.497 58.6769C261.539 59.5869 262.253 59.9509 263.891 60.3429C264.325 60.1049 264.983 59.5729 265.039 58.6489C265.095 57.7529 264.577 57.0389 263.303 57.0389C262.253 57.0389 261.455 57.6409 261.497 58.6769ZM262.603 61.0849C261.763 61.6029 261.147 62.1909 261.147 63.1989C261.147 64.8509 262.253 65.1869 263.275 65.2009C264.577 65.2149 265.459 64.2769 265.459 63.1149C265.459 61.8829 264.059 61.4909 262.603 61.0849ZM272.111 56.2129H273.483V62.2749H274.897L274.799 63.2829H273.483V66.0269H272.307V63.2829H267.785V62.0929L272.111 56.2129ZM272.293 57.5149L268.835 62.2749H272.293V57.5149ZM276.348 56.2269H279.204V66.0269H278.028V57.2069H276.348V56.2269ZM285.012 55.9889C286.902 55.9889 288.596 57.3889 288.596 60.9309C288.596 64.1789 287.42 66.1109 285.012 66.1109C282.646 66.1109 281.358 64.2209 281.358 60.9309C281.358 57.4169 283.08 55.9889 285.012 55.9889ZM284.998 56.9829C283.682 56.9829 282.534 58.0329 282.534 60.9169C282.534 63.9409 283.388 65.1029 284.998 65.1029C286.636 65.1029 287.42 63.9409 287.42 60.9169C287.42 58.0049 286.3 56.9829 284.998 56.9829ZM290.097 58.6209C290.139 58.0329 290.727 56.1289 293.177 56.1569C294.955 56.1709 296.019 57.1089 296.033 58.6489C296.061 60.2589 294.885 60.8189 294.157 60.8749C294.871 60.9309 296.271 61.4069 296.271 63.2549C296.271 64.8509 295.053 66.0969 293.149 66.1109C290.517 66.1389 289.999 64.2629 289.957 63.6749L291.105 63.3389C291.105 63.3389 291.133 65.1029 293.065 65.1029C294.227 65.1029 295.081 64.4729 295.081 63.1569C295.081 61.0289 292.295 61.3789 292.295 61.3789V60.4689C292.295 60.4689 294.857 60.7769 294.857 58.7749C294.857 57.7109 294.227 57.1509 293.121 57.1509C291.217 57.1649 291.231 58.9709 291.231 58.9709L290.097 58.6209ZM298.73 63.5769C298.73 63.6749 298.87 65.1869 300.522 65.1869C302.188 65.1869 302.93 63.7169 302.93 61.3649C302.65 61.8549 301.88 62.6669 300.578 62.6809C298.73 62.6949 297.526 61.6869 297.526 59.5169C297.526 57.5009 298.842 56.1569 300.872 56.1989C302.832 56.2409 304.148 57.4029 304.134 61.0009C304.134 63.6609 303.462 66.1529 300.508 66.1529C298.31 66.1529 297.75 64.3749 297.666 63.9549L298.73 63.5769ZM300.788 57.1089C299.5 57.1089 298.688 58.0609 298.688 59.4889C298.688 61.1829 299.444 61.8269 300.732 61.8269C301.782 61.8269 302.916 60.9729 302.916 59.5029C302.916 58.0329 302.048 57.1089 300.788 57.1089Z" fill="white"/>
<path d="M136 37.0288C136 34.2674 138.239 32.0288 141 32.0288H230V89.0288H141C138.239 89.0288 136 86.7902 136 84.0288V37.0288Z" fill="#660027"/>
<path d="M155.593 46.2078C158.225 46.2078 160.185 47.5798 160.185 50.8278C160.185 54.4118 158.127 56.0078 155.411 56.0078H152.037V46.2078H155.593ZM154.347 48.1118V54.0198H155.383C157.315 54.0198 157.875 52.6758 157.875 50.9258C157.875 48.9938 157.133 48.1118 155.509 48.1118H154.347ZM167.834 46.2078C169.766 46.2078 171.278 47.2018 171.278 49.3718C171.264 50.8278 170.676 51.7098 169.766 52.1578L171.642 56.0078H169.108L167.652 52.5498L166.364 52.5638V56.0078H164.054V46.2078H167.834ZM166.364 48.1118V50.5758H167.694C168.464 50.5758 168.996 50.1418 168.996 49.3298C169.01 48.6298 168.576 48.1118 167.694 48.1118H166.364ZM172.558 46.2078H178.774L178.508 48.1118H174.854V49.9598H178.424V51.9338H174.854V54.0198H178.802V56.0078H172.558V46.2078ZM183.566 46.2078C186.198 46.2078 188.158 47.5798 188.158 50.8278C188.158 54.4118 186.1 56.0078 183.384 56.0078H180.01V46.2078H183.566ZM182.32 48.1118V54.0198H183.356C185.288 54.0198 185.848 52.6758 185.848 50.9258C185.848 48.9938 185.106 48.1118 183.482 48.1118H182.32ZM188.773 51.3318H192.245V53.1658H188.773V51.3318ZM193.171 46.2078H196.937V56.0078H194.627V48.1118H193.171V46.2078ZM202.387 46.1238C204.389 46.1238 206.181 47.5238 206.181 50.9118C206.181 54.1598 204.949 56.0918 202.387 56.0918C199.895 56.0918 198.523 54.2018 198.523 50.9118C198.523 47.5518 200.343 46.1238 202.387 46.1238ZM202.373 48.0418C201.547 48.0418 200.847 48.8538 200.847 50.9118C200.847 53.2358 201.365 54.1458 202.373 54.1458C203.381 54.1458 203.885 53.2358 203.885 50.9118C203.885 48.8258 203.185 48.0418 202.373 48.0418ZM209.746 46.2078H212.056V54.0198H215.486V56.0078H209.746V46.2078ZM156.325 70.0578H158.271L158.677 68.0978H159.503L159.083 70.0578H161.183L161.603 68.0978H162.401L161.995 70.0578H163.661V70.8138H161.827L161.337 73.0818H163.199V73.8238H161.183L160.721 76.0078H159.923L160.371 73.8238H158.271L157.823 76.0078H156.997L157.459 73.8238H155.863V73.0818H157.613L158.103 70.8138H156.325V70.0578ZM158.915 70.8138L158.439 73.0818H160.539L161.015 70.8138H158.915ZM170.403 68.7138C170.403 68.6158 170.291 67.1038 168.653 67.1038C166.973 67.1038 166.245 68.5738 166.245 70.9258C166.511 70.4358 167.281 69.6238 168.583 69.6098C170.431 69.5958 171.649 70.6038 171.649 72.7738C171.649 74.7898 170.319 76.1338 168.289 76.0918C166.329 76.0498 165.013 74.8878 165.027 71.2898C165.027 68.6298 165.699 66.1378 168.653 66.1378C170.851 66.1378 171.383 67.9158 171.453 68.3358L170.403 68.7138ZM168.443 70.4638C167.379 70.4638 166.245 71.3178 166.245 72.7878C166.245 74.2578 167.127 75.1818 168.373 75.1818C169.661 75.1818 170.473 74.2298 170.473 72.8018C170.473 71.1078 169.717 70.4638 168.443 70.4638ZM178.456 68.7138C178.456 68.6158 178.344 67.1038 176.706 67.1038C175.026 67.1038 174.298 68.5738 174.298 70.9258C174.564 70.4358 175.334 69.6238 176.636 69.6098C178.484 69.5958 179.702 70.6038 179.702 72.7738C179.702 74.7898 178.372 76.1338 176.342 76.0918C174.382 76.0498 173.066 74.8878 173.08 71.2898C173.08 68.6298 173.752 66.1378 176.706 66.1378C178.904 66.1378 179.436 67.9158 179.506 68.3358L178.456 68.7138ZM176.496 70.4638C175.432 70.4638 174.298 71.3178 174.298 72.7878C174.298 74.2578 175.18 75.1818 176.426 75.1818C177.714 75.1818 178.526 74.2298 178.526 72.8018C178.526 71.1078 177.77 70.4638 176.496 70.4638ZM184.422 65.9698C186.312 65.9698 188.006 67.3698 188.006 70.9118C188.006 74.1598 186.83 76.0918 184.422 76.0918C182.056 76.0918 180.768 74.2018 180.768 70.9118C180.768 67.3978 182.49 65.9698 184.422 65.9698ZM184.408 66.9638C183.092 66.9638 181.944 68.0138 181.944 70.8978C181.944 73.9218 182.798 75.0838 184.408 75.0838C186.046 75.0838 186.83 73.9218 186.83 70.8978C186.83 67.9858 185.71 66.9638 184.408 66.9638ZM192.475 65.9698C194.365 65.9698 196.059 67.3698 196.059 70.9118C196.059 74.1598 194.883 76.0918 192.475 76.0918C190.109 76.0918 188.821 74.2018 188.821 70.9118C188.821 67.3978 190.543 65.9698 192.475 65.9698ZM192.461 66.9638C191.145 66.9638 189.997 68.0138 189.997 70.8978C189.997 73.9218 190.851 75.0838 192.461 75.0838C194.099 75.0838 194.883 73.9218 194.883 70.8978C194.883 67.9858 193.763 66.9638 192.461 66.9638ZM197.314 68.5458C197.37 67.9718 198.07 66.1098 200.464 66.1378C202.452 66.1518 203.348 67.2998 203.348 68.6858C203.348 70.5058 202.102 71.1638 200.856 71.9618C199.176 73.0398 198.462 73.7118 198.518 75.0278H203.32L203.152 76.0078H197.342C197.062 73.3338 198.462 72.2278 200.142 71.1778C201.01 70.6458 202.172 70.0578 202.172 68.7418C202.172 67.5938 201.5 67.1318 200.366 67.1318C198.532 67.1318 198.434 68.8958 198.434 68.8958L197.314 68.5458ZM204.834 66.2078H210.434L210.7 67.0478L206.836 76.0078H205.576L209.468 67.1878H204.834V66.2078Z" fill="white"/>
<rect width="94" height="57" transform="translate(418 107.029)" fill="#3C56A2"/>
<path d="M436.268 135.077H438.214L438.62 133.117H439.446L439.026 135.077H441.126L441.546 133.117H442.344L441.938 135.077H443.604V135.833H441.77L441.28 138.101H443.142V138.843H441.126L440.664 141.027H439.866L440.314 138.843H438.214L437.766 141.027H436.94L437.402 138.843H435.806V138.101H437.556L438.046 135.833H436.268V135.077ZM438.858 135.833L438.382 138.101H440.482L440.958 135.833H438.858ZM445.291 133.621C445.333 133.033 445.921 131.129 448.371 131.157C450.149 131.171 451.213 132.109 451.227 133.649C451.255 135.259 450.079 135.819 449.351 135.875C450.065 135.931 451.465 136.407 451.465 138.255C451.465 139.851 450.247 141.097 448.343 141.111C445.711 141.139 445.193 139.263 445.151 138.675L446.299 138.339C446.299 138.339 446.327 140.103 448.259 140.103C449.421 140.103 450.275 139.473 450.275 138.157C450.275 136.029 447.489 136.379 447.489 136.379V135.469C447.489 135.469 450.051 135.777 450.051 133.775C450.051 132.711 449.421 132.151 448.315 132.151C446.411 132.165 446.425 133.971 446.425 133.971L445.291 133.621ZM460.302 134.097C459.896 132.823 459.014 132.081 457.53 132.081C455.78 132.081 454.324 133.257 454.324 136.085C454.324 138.283 455.304 140.145 457.488 140.145C458.818 140.145 459.784 139.487 460.316 138.283L461.324 138.773C460.568 140.313 459.224 141.167 457.474 141.167C454.66 141.167 453.134 139.067 453.134 136.141C453.134 132.655 455.178 131.087 457.558 131.087C459.35 131.087 460.75 132.011 461.296 133.607L460.302 134.097ZM463.819 131.227H468.915L468.761 132.207H464.855L464.477 135.609C464.757 135.203 465.401 134.783 466.409 134.783C468.005 134.769 469.321 135.777 469.307 137.751C469.293 139.333 468.383 141.083 466.115 141.111C463.567 141.139 462.951 139.305 462.895 138.731L464.015 138.367C464.015 138.367 464.015 140.117 466.031 140.117C467.389 140.117 468.131 139.179 468.131 137.765C468.131 136.463 467.403 135.735 466.255 135.693C465.191 135.651 464.561 136.337 464.393 136.631L463.259 136.463L463.819 131.227ZM471.599 131.227H476.695L476.541 132.207H472.635L472.257 135.609C472.537 135.203 473.181 134.783 474.189 134.783C475.785 134.769 477.101 135.777 477.087 137.751C477.073 139.333 476.163 141.083 473.895 141.111C471.347 141.139 470.731 139.305 470.675 138.731L471.795 138.367C471.795 138.367 471.795 140.117 473.811 140.117C475.169 140.117 475.911 139.179 475.911 137.765C475.911 136.463 475.183 135.735 474.035 135.693C472.971 135.651 472.341 136.337 472.173 136.631L471.039 136.463L471.599 131.227ZM482.073 131.227H483.641L487.225 141.027H485.965L485.041 138.423H480.603L479.679 141.027H478.433L482.073 131.227ZM482.787 132.557L480.967 137.415H484.677L482.899 132.557H482.787ZM488.863 133.565C488.919 132.991 489.619 131.129 492.013 131.157C494.001 131.171 494.897 132.319 494.897 133.705C494.897 135.525 493.651 136.183 492.405 136.981C490.725 138.059 490.011 138.731 490.067 140.047H494.869L494.701 141.027H488.891C488.611 138.353 490.011 137.247 491.691 136.197C492.559 135.665 493.721 135.077 493.721 133.761C493.721 132.613 493.049 132.151 491.915 132.151C490.081 132.151 489.983 133.915 489.983 133.915L488.863 133.565Z" fill="white"/>
<rect width="94" height="57" transform="translate(888 107.029)" fill="#C6DBDD"/>
<path d="M903.3 135.077H905.246L905.652 133.117H906.478L906.058 135.077H908.158L908.578 133.117H909.376L908.97 135.077H910.636V135.833H908.802L908.312 138.101H910.174V138.843H908.158L907.696 141.027H906.898L907.346 138.843H905.246L904.798 141.027H903.972L904.434 138.843H902.838V138.101H904.588L905.078 135.833H903.3V135.077ZM905.89 135.833L905.414 138.101H907.514L907.99 135.833H905.89ZM919.281 134.097C918.875 132.823 917.993 132.081 916.509 132.081C914.759 132.081 913.303 133.257 913.303 136.085C913.303 138.283 914.283 140.145 916.467 140.145C917.797 140.145 918.763 139.487 919.295 138.283L920.303 138.773C919.547 140.313 918.203 141.167 916.453 141.167C913.639 141.167 912.113 139.067 912.113 136.141C912.113 132.655 914.157 131.087 916.537 131.087C918.329 131.087 919.729 132.011 920.275 133.607L919.281 134.097ZM927.153 133.733C927.153 133.635 927.041 132.123 925.403 132.123C923.723 132.123 922.995 133.593 922.995 135.945C923.261 135.455 924.031 134.643 925.333 134.629C927.181 134.615 928.399 135.623 928.399 137.793C928.399 139.809 927.069 141.153 925.039 141.111C923.079 141.069 921.763 139.907 921.777 136.309C921.777 133.649 922.449 131.157 925.403 131.157C927.601 131.157 928.133 132.935 928.203 133.355L927.153 133.733ZM925.193 135.483C924.129 135.483 922.995 136.337 922.995 137.807C922.995 139.277 923.877 140.201 925.123 140.201C926.411 140.201 927.223 139.249 927.223 137.821C927.223 136.127 926.467 135.483 925.193 135.483ZM933.442 131.227C936.074 131.227 938.104 132.599 938.104 135.847C938.104 139.431 935.976 141.027 933.26 141.027H930.348V131.227H933.442ZM931.538 132.207V140.019H933.302C935.794 140.019 936.9 138.213 936.9 135.917C936.9 133.369 935.528 132.207 933.428 132.207H931.538ZM943.955 131.227C945.831 131.227 946.965 131.983 946.965 133.607C946.965 134.769 946.251 135.623 945.509 135.847C946.349 136.071 947.231 136.869 947.231 138.283C947.231 139.809 946.321 141.027 944.109 141.027H940.287V131.227H943.955ZM941.477 132.207V135.413H943.871C945.033 135.413 945.775 134.867 945.775 133.719C945.775 132.697 945.145 132.207 943.983 132.207H941.477ZM941.477 136.421V140.019H944.137C945.285 140.019 946.013 139.459 946.041 138.255C946.069 136.967 945.201 136.421 943.885 136.421H941.477ZM952.295 131.227C954.927 131.227 956.957 132.599 956.957 135.847C956.957 139.431 954.829 141.027 952.113 141.027H949.201V131.227H952.295ZM950.391 132.207V140.019H952.155C954.647 140.019 955.753 138.213 955.753 135.917C955.753 133.369 954.381 132.207 952.281 132.207H950.391ZM962.235 131.227C964.867 131.227 966.897 132.599 966.897 135.847C966.897 139.431 964.769 141.027 962.053 141.027H959.141V131.227H962.235ZM960.331 132.207V140.019H962.095C964.587 140.019 965.693 138.213 965.693 135.917C965.693 133.369 964.321 132.207 962.221 132.207H960.331Z" fill="black"/>
<rect width="94" height="57" transform="translate(794 107.029)" fill="#9FC2D0"/>
<path d="M812.425 135.077H814.371L814.777 133.117H815.603L815.183 135.077H817.283L817.703 133.117H818.501L818.095 135.077H819.761V135.833H817.927L817.437 138.101H819.299V138.843H817.283L816.821 141.027H816.023L816.471 138.843H814.371L813.923 141.027H813.097L813.559 138.843H811.963V138.101H813.713L814.203 135.833H812.425V135.077ZM815.015 135.833L814.539 138.101H816.639L817.115 135.833H815.015ZM822.302 138.577C822.302 138.675 822.442 140.187 824.094 140.187C825.76 140.187 826.502 138.717 826.502 136.365C826.222 136.855 825.452 137.667 824.15 137.681C822.302 137.695 821.098 136.687 821.098 134.517C821.098 132.501 822.414 131.157 824.444 131.199C826.404 131.241 827.72 132.403 827.706 136.001C827.706 138.661 827.034 141.153 824.08 141.153C821.882 141.153 821.322 139.375 821.238 138.955L822.302 138.577ZM824.36 132.109C823.072 132.109 822.26 133.061 822.26 134.489C822.26 136.183 823.016 136.827 824.304 136.827C825.354 136.827 826.488 135.973 826.488 134.503C826.488 133.033 825.62 132.109 824.36 132.109ZM829.697 131.227H835.367L835.241 132.207H830.887V135.651H834.989L834.947 136.659H830.887V141.027H829.697V131.227ZM843.897 134.097C843.491 132.823 842.609 132.081 841.125 132.081C839.375 132.081 837.919 133.257 837.919 136.085C837.919 138.283 838.899 140.145 841.083 140.145C842.413 140.145 843.379 139.487 843.911 138.283L844.919 138.773C844.163 140.313 842.819 141.167 841.069 141.167C838.255 141.167 836.729 139.067 836.729 136.141C836.729 132.655 838.773 131.087 841.153 131.087C842.945 131.087 844.345 132.011 844.891 133.607L843.897 134.097ZM846.714 133.565C846.77 132.991 847.47 131.129 849.864 131.157C851.852 131.171 852.748 132.319 852.748 133.705C852.748 135.525 851.502 136.183 850.256 136.981C848.576 138.059 847.862 138.731 847.918 140.047H852.72L852.552 141.027H846.742C846.462 138.353 847.862 137.247 849.542 136.197C850.41 135.665 851.572 135.077 851.572 133.761C851.572 132.613 850.9 132.151 849.766 132.151C847.932 132.151 847.834 133.915 847.834 133.915L846.714 133.565ZM858.057 131.227C860.689 131.227 862.719 132.599 862.719 135.847C862.719 139.431 860.591 141.027 857.875 141.027H854.963V131.227H858.057ZM856.153 132.207V140.019H857.917C860.409 140.019 861.515 138.213 861.515 135.917C861.515 133.369 860.143 132.207 858.043 132.207H856.153ZM867.674 130.989C869.564 130.989 871.258 132.389 871.258 135.931C871.258 139.179 870.082 141.111 867.674 141.111C865.308 141.111 864.02 139.221 864.02 135.931C864.02 132.417 865.742 130.989 867.674 130.989ZM867.66 131.983C866.344 131.983 865.196 133.033 865.196 135.917C865.196 138.941 866.05 140.103 867.66 140.103C869.298 140.103 870.082 138.941 870.082 135.917C870.082 133.005 868.962 131.983 867.66 131.983Z" fill="black"/>
<rect width="94" height="57" transform="translate(700 107.029)" fill="#79A9C3"/>
<path d="M718.548 135.077H720.494L720.9 133.117H721.726L721.306 135.077H723.406L723.826 133.117H724.624L724.218 135.077H725.884V135.833H724.05L723.56 138.101H725.422V138.843H723.406L722.944 141.027H722.146L722.594 138.843H720.494L720.046 141.027H719.22L719.682 138.843H718.086V138.101H719.836L720.326 135.833H718.548V135.077ZM721.138 135.833L720.662 138.101H722.762L723.238 135.833H721.138ZM727.599 131.227H733.199L733.465 132.067L729.601 141.027H728.341L732.233 132.207H727.599V131.227ZM735.644 138.577C735.644 138.675 735.784 140.187 737.436 140.187C739.102 140.187 739.844 138.717 739.844 136.365C739.564 136.855 738.794 137.667 737.492 137.681C735.644 137.695 734.44 136.687 734.44 134.517C734.44 132.501 735.756 131.157 737.786 131.199C739.746 131.241 741.062 132.403 741.048 136.001C741.048 138.661 740.376 141.153 737.422 141.153C735.224 141.153 734.664 139.375 734.58 138.955L735.644 138.577ZM737.702 132.109C736.414 132.109 735.602 133.061 735.602 134.489C735.602 136.183 736.358 136.827 737.646 136.827C738.696 136.827 739.83 135.973 739.83 134.503C739.83 133.033 738.962 132.109 737.702 132.109ZM745.965 131.227H747.533L751.117 141.027H749.857L748.933 138.423H744.495L743.571 141.027H742.325L745.965 131.227ZM746.679 132.557L744.859 137.415H748.569L746.791 132.557H746.679ZM753.609 138.577C753.609 138.675 753.749 140.187 755.401 140.187C757.067 140.187 757.809 138.717 757.809 136.365C757.529 136.855 756.759 137.667 755.457 137.681C753.609 137.695 752.405 136.687 752.405 134.517C752.405 132.501 753.721 131.157 755.751 131.199C757.711 131.241 759.027 132.403 759.013 136.001C759.013 138.661 758.341 141.153 755.387 141.153C753.189 141.153 752.629 139.375 752.545 138.955L753.609 138.577ZM755.667 132.109C754.379 132.109 753.567 133.061 753.567 134.489C753.567 136.183 754.323 136.827 755.611 136.827C756.661 136.827 757.795 135.973 757.795 134.503C757.795 133.033 756.927 132.109 755.667 132.109ZM767.766 134.097C767.36 132.823 766.478 132.081 764.994 132.081C763.244 132.081 761.788 133.257 761.788 136.085C761.788 138.283 762.768 140.145 764.952 140.145C766.282 140.145 767.248 139.487 767.78 138.283L768.788 138.773C768.032 140.313 766.688 141.167 764.938 141.167C762.124 141.167 760.598 139.067 760.598 136.141C760.598 132.655 762.642 131.087 765.022 131.087C766.814 131.087 768.214 132.011 768.76 133.607L767.766 134.097ZM770.583 133.621C770.625 133.033 771.213 131.129 773.663 131.157C775.441 131.171 776.505 132.109 776.519 133.649C776.547 135.259 775.371 135.819 774.643 135.875C775.357 135.931 776.757 136.407 776.757 138.255C776.757 139.851 775.539 141.097 773.635 141.111C771.003 141.139 770.485 139.263 770.443 138.675L771.591 138.339C771.591 138.339 771.619 140.103 773.551 140.103C774.713 140.103 775.567 139.473 775.567 138.157C775.567 136.029 772.781 136.379 772.781 136.379V135.469C772.781 135.469 775.343 135.777 775.343 133.775C775.343 132.711 774.713 132.151 773.607 132.151C771.703 132.165 771.717 133.971 771.717 133.971L770.583 133.621Z" fill="black"/>
<rect width="94" height="57" transform="translate(606 107.029)" fill="#5E8EBA"/>
<path d="M624.417 135.077H626.363L626.769 133.117H627.595L627.175 135.077H629.275L629.695 133.117H630.493L630.087 135.077H631.753V135.833H629.919L629.429 138.101H631.291V138.843H629.275L628.813 141.027H628.015L628.463 138.843H626.363L625.915 141.027H625.089L625.551 138.843H623.955V138.101H625.705L626.195 135.833H624.417V135.077ZM627.007 135.833L626.531 138.101H628.631L629.107 135.833H627.007ZM634.141 131.227H639.237L639.083 132.207H635.177L634.799 135.609C635.079 135.203 635.723 134.783 636.731 134.783C638.327 134.769 639.643 135.777 639.629 137.751C639.615 139.333 638.705 141.083 636.437 141.111C633.889 141.139 633.273 139.305 633.217 138.731L634.337 138.367C634.337 138.367 634.337 140.117 636.353 140.117C637.711 140.117 638.453 139.179 638.453 137.765C638.453 136.463 637.725 135.735 636.577 135.693C635.513 135.651 634.883 136.337 634.715 136.631L633.581 136.463L634.141 131.227ZM641.689 131.227H647.387L647.247 132.207H642.879V135.469H647.037V136.463H642.879V140.019H647.415V141.027H641.689V131.227ZM650.729 135.679C649.749 135.217 649.301 134.559 649.315 133.635C649.343 131.843 650.953 131.157 652.353 131.157C653.753 131.157 655.181 131.843 655.181 133.481C655.181 134.643 654.467 135.427 653.739 135.763C654.929 136.183 655.615 136.911 655.615 138.073C655.615 140.047 654.047 141.111 652.227 141.111C650.239 141.111 648.825 140.131 648.923 138.171C648.979 136.911 650.015 135.987 650.729 135.679ZM650.477 133.677C650.519 134.587 651.233 134.951 652.871 135.343C653.305 135.105 653.963 134.573 654.019 133.649C654.075 132.753 653.557 132.039 652.283 132.039C651.233 132.039 650.435 132.641 650.477 133.677ZM651.583 136.085C650.743 136.603 650.127 137.191 650.127 138.199C650.127 139.851 651.233 140.187 652.255 140.201C653.557 140.215 654.439 139.277 654.439 138.115C654.439 136.883 653.039 136.491 651.583 136.085ZM657.508 131.227H663.206L663.066 132.207H658.698V135.469H662.856V136.463H658.698V140.019H663.234V141.027H657.508V131.227ZM668.941 131.227C670.817 131.227 671.951 131.983 671.951 133.607C671.951 134.769 671.237 135.623 670.495 135.847C671.335 136.071 672.217 136.869 672.217 138.283C672.217 139.809 671.307 141.027 669.095 141.027H665.273V131.227H668.941ZM666.463 132.207V135.413H668.857C670.019 135.413 670.761 134.867 670.761 133.719C670.761 132.697 670.131 132.207 668.969 132.207H666.463ZM666.463 136.421V140.019H669.123C670.271 140.019 670.999 139.459 671.027 138.255C671.055 136.967 670.187 136.421 668.871 136.421H666.463ZM676.977 131.227H678.545L682.129 141.027H680.869L679.945 138.423H675.507L674.583 141.027H673.337L676.977 131.227ZM677.691 132.557L675.871 137.415H679.581L677.803 132.557H677.691Z" fill="black"/>
<rect width="94" height="57" transform="translate(512 107.029)" fill="#4A71B0"/>
<path d="M531.191 135.077H533.137L533.543 133.117H534.369L533.949 135.077H536.049L536.469 133.117H537.267L536.861 135.077H538.527V135.833H536.693L536.203 138.101H538.065V138.843H536.049L535.587 141.027H534.789L535.237 138.843H533.137L532.689 141.027H531.863L532.325 138.843H530.729V138.101H532.479L532.969 135.833H531.191V135.077ZM533.781 135.833L533.305 138.101H535.405L535.881 135.833H533.781ZM543.994 131.213H545.366V137.275H546.78L546.682 138.283H545.366V141.027H544.19V138.283H539.668V137.093L543.994 131.213ZM544.176 132.515L540.718 137.275H544.176V132.515ZM551.389 131.227H552.957L556.541 141.027H555.281L554.357 138.423H549.919L548.995 141.027H547.749L551.389 131.227ZM552.103 132.557L550.283 137.415H553.993L552.215 132.557H552.103ZM558.207 131.227H563.807L564.073 132.067L560.209 141.027H558.949L562.841 132.207H558.207V131.227ZM565.772 131.227H568.628V141.027H567.452V132.207H565.772V131.227ZM576.891 131.227C578.767 131.227 579.901 131.983 579.901 133.607C579.901 134.769 579.187 135.623 578.445 135.847C579.285 136.071 580.167 136.869 580.167 138.283C580.167 139.809 579.257 141.027 577.045 141.027H573.223V131.227H576.891ZM574.413 132.207V135.413H576.807C577.969 135.413 578.711 134.867 578.711 133.719C578.711 132.697 578.081 132.207 576.919 132.207H574.413ZM574.413 136.421V140.019H577.073C578.221 140.019 578.949 139.459 578.977 138.255C579.005 136.967 578.137 136.421 576.821 136.421H574.413ZM584.909 130.989C586.799 130.989 588.493 132.389 588.493 135.931C588.493 139.179 587.317 141.111 584.909 141.111C582.543 141.111 581.255 139.221 581.255 135.931C581.255 132.417 582.977 130.989 584.909 130.989ZM584.895 131.983C583.579 131.983 582.431 133.033 582.431 135.917C582.431 138.941 583.285 140.103 584.895 140.103C586.533 140.103 587.317 138.941 587.317 135.917C587.317 133.005 586.197 131.983 584.895 131.983Z" fill="white"/>
<rect width="94" height="57" transform="translate(324 107.029)" fill="#2E3A93"/>
<path d="M343.348 135.077H345.294L345.7 133.117H346.526L346.106 135.077H348.206L348.626 133.117H349.424L349.018 135.077H350.684V135.833H348.85L348.36 138.101H350.222V138.843H348.206L347.744 141.027H346.946L347.394 138.843H345.294L344.846 141.027H344.02L344.482 138.843H342.886V138.101H344.636L345.126 135.833H343.348V135.077ZM345.938 135.833L345.462 138.101H347.562L348.038 135.833H345.938ZM352.371 133.565C352.427 132.991 353.127 131.129 355.521 131.157C357.509 131.171 358.405 132.319 358.405 133.705C358.405 135.525 357.159 136.183 355.913 136.981C354.233 138.059 353.519 138.731 353.575 140.047H358.377L358.209 141.027H352.399C352.119 138.353 353.519 137.247 355.199 136.197C356.067 135.665 357.229 135.077 357.229 133.761C357.229 132.613 356.557 132.151 355.423 132.151C353.589 132.151 353.491 133.915 353.491 133.915L352.371 133.565ZM360.62 131.227H366.318L366.178 132.207H361.81V135.469H365.968V136.463H361.81V140.019H366.346V141.027H360.62V131.227ZM368.19 133.621C368.232 133.033 368.82 131.129 371.27 131.157C373.048 131.171 374.112 132.109 374.126 133.649C374.154 135.259 372.978 135.819 372.25 135.875C372.964 135.931 374.364 136.407 374.364 138.255C374.364 139.851 373.146 141.097 371.242 141.111C368.61 141.139 368.092 139.263 368.05 138.675L369.198 138.339C369.198 138.339 369.226 140.103 371.158 140.103C372.32 140.103 373.174 139.473 373.174 138.157C373.174 136.029 370.388 136.379 370.388 136.379V135.469C370.388 135.469 372.95 135.777 372.95 133.775C372.95 132.711 372.32 132.151 371.214 132.151C369.31 132.165 369.324 133.971 369.324 133.971L368.19 133.621ZM379.364 131.227H380.932L384.516 141.027H383.256L382.332 138.423H377.894L376.97 141.027H375.724L379.364 131.227ZM380.078 132.557L378.258 137.415H381.968L380.19 132.557H380.078ZM387.009 138.577C387.009 138.675 387.149 140.187 388.801 140.187C390.467 140.187 391.209 138.717 391.209 136.365C390.929 136.855 390.159 137.667 388.857 137.681C387.009 137.695 385.805 136.687 385.805 134.517C385.805 132.501 387.12 131.157 389.151 131.199C391.111 131.241 392.427 132.403 392.413 136.001C392.413 138.661 391.741 141.153 388.787 141.153C386.589 141.153 386.029 139.375 385.945 138.955L387.009 138.577ZM389.067 132.109C387.779 132.109 386.967 133.061 386.967 134.489C386.967 136.183 387.723 136.827 389.011 136.827C390.061 136.827 391.195 135.973 391.195 134.503C391.195 133.033 390.327 132.109 389.067 132.109ZM393.783 133.621C393.825 133.033 394.413 131.129 396.863 131.157C398.641 131.171 399.705 132.109 399.719 133.649C399.747 135.259 398.571 135.819 397.843 135.875C398.557 135.931 399.957 136.407 399.957 138.255C399.957 139.851 398.739 141.097 396.835 141.111C394.203 141.139 393.685 139.263 393.643 138.675L394.791 138.339C394.791 138.339 394.819 140.103 396.751 140.103C397.913 140.103 398.767 139.473 398.767 138.157C398.767 136.029 395.981 136.379 395.981 136.379V135.469C395.981 135.469 398.543 135.777 398.543 133.775C398.543 132.711 397.913 132.151 396.807 132.151C394.903 132.165 394.917 133.971 394.917 133.971L393.783 133.621Z" fill="white"/>
<rect width="94" height="57" transform="translate(230 107.029)" fill="#1E207D"/>
<path d="M249.437 135.077H251.383L251.789 133.117H252.615L252.195 135.077H254.295L254.715 133.117H255.513L255.107 135.077H256.773V135.833H254.939L254.449 138.101H256.311V138.843H254.295L253.833 141.027H253.035L253.483 138.843H251.383L250.935 141.027H250.109L250.571 138.843H248.975V138.101H250.725L251.215 135.833H249.437V135.077ZM252.027 135.833L251.551 138.101H253.651L254.127 135.833H252.027ZM259.258 131.227H262.114V141.027H260.938V132.207H259.258V131.227ZM266.709 131.227H272.407L272.267 132.207H267.899V135.469H272.057V136.463H267.899V140.019H272.435V141.027H266.709V131.227ZM274.279 133.565C274.335 132.991 275.035 131.129 277.429 131.157C279.417 131.171 280.313 132.319 280.313 133.705C280.313 135.525 279.067 136.183 277.821 136.981C276.141 138.059 275.427 138.731 275.483 140.047H280.285L280.117 141.027H274.307C274.027 138.353 275.427 137.247 277.107 136.197C277.975 135.665 279.137 135.077 279.137 133.761C279.137 132.613 278.465 132.151 277.331 132.151C275.497 132.151 275.399 133.915 275.399 133.915L274.279 133.565ZM285.299 130.989C287.189 130.989 288.883 132.389 288.883 135.931C288.883 139.179 287.707 141.111 285.299 141.111C282.933 141.111 281.645 139.221 281.645 135.931C281.645 132.417 283.367 130.989 285.299 130.989ZM285.285 131.983C283.969 131.983 282.821 133.033 282.821 135.917C282.821 138.941 283.675 140.103 285.285 140.103C286.923 140.103 287.707 138.941 287.707 135.917C287.707 133.005 286.587 131.983 285.285 131.983ZM289.783 131.227H295.383L295.649 132.067L291.785 141.027H290.525L294.417 132.207H289.783V131.227ZM301.098 131.227C303.73 131.227 305.76 132.599 305.76 135.847C305.76 139.431 303.632 141.027 300.916 141.027H298.004V131.227H301.098ZM299.194 132.207V140.019H300.958C303.45 140.019 304.556 138.213 304.556 135.917C304.556 133.369 303.184 132.207 301.084 132.207H299.194Z" fill="white"/>
<path d="M136 112.029C136 109.267 138.239 107.029 141 107.029H230V164.029H141C138.239 164.029 136 161.79 136 159.029V112.029Z" fill="#0D0364"/>
<path d="M152.524 121.19C155.156 121.19 157.116 122.562 157.116 125.81C157.116 129.394 155.058 130.99 152.342 130.99H148.968V121.19H152.524ZM151.278 123.094V129.002H152.314C154.246 129.002 154.806 127.658 154.806 125.908C154.806 123.976 154.064 123.094 152.44 123.094H151.278ZM165.003 121.19C167.075 121.19 168.223 121.932 168.223 123.654C168.223 124.648 167.803 125.46 167.033 125.81C167.915 126.104 168.489 126.846 168.489 128.078C168.489 129.94 167.243 130.99 164.933 130.99H160.985V121.19H165.003ZM163.295 123.094V124.9H164.905C165.549 124.9 165.927 124.578 165.927 123.948C165.927 123.36 165.577 123.094 164.947 123.094H163.295ZM163.295 126.902V129.002H164.947C165.703 129.002 166.165 128.666 166.179 127.966C166.207 127.224 165.689 126.902 164.919 126.902H163.295ZM169.557 121.19H171.867V129.002H175.297V130.99H169.557V121.19ZM175.969 121.19H178.265V127.336C178.265 128.512 178.937 129.1 179.861 129.1C180.785 129.1 181.457 128.484 181.457 127.308V121.19H183.753V127.35C183.753 130.024 181.905 131.13 179.861 131.13C177.803 131.13 175.969 129.996 175.969 127.378V121.19ZM185.13 121.19H191.346L191.08 123.094H187.426V124.942H190.996V126.916H187.426V129.002H191.374V130.99H185.13V121.19ZM191.842 126.314H195.314V128.148H191.842V126.314ZM196.24 121.19H200.006V130.99H197.696V123.094H196.24V121.19ZM205.456 121.106C207.458 121.106 209.25 122.506 209.25 125.894C209.25 129.142 208.018 131.074 205.456 131.074C202.964 131.074 201.592 129.184 201.592 125.894C201.592 122.534 203.412 121.106 205.456 121.106ZM205.442 123.024C204.616 123.024 203.916 123.836 203.916 125.894C203.916 128.218 204.434 129.128 205.442 129.128C206.45 129.128 206.954 128.218 206.954 125.894C206.954 123.808 206.254 123.024 205.442 123.024ZM212.815 121.19H215.125V129.002H218.555V130.99H212.815V121.19ZM155.047 145.04H156.993L157.399 143.08H158.225L157.805 145.04H159.905L160.325 143.08H161.123L160.717 145.04H162.383V145.796H160.549L160.059 148.064H161.921V148.806H159.905L159.443 150.99H158.645L159.093 148.806H156.993L156.545 150.99H155.719L156.181 148.806H154.585V148.064H156.335L156.825 145.796H155.047V145.04ZM157.637 145.796L157.161 148.064H159.261L159.737 145.796H157.637ZM167.039 140.952C168.929 140.952 170.623 142.352 170.623 145.894C170.623 149.142 169.447 151.074 167.039 151.074C164.673 151.074 163.385 149.184 163.385 145.894C163.385 142.38 165.107 140.952 167.039 140.952ZM167.025 141.946C165.709 141.946 164.561 142.996 164.561 145.88C164.561 148.904 165.415 150.066 167.025 150.066C168.663 150.066 169.447 148.904 169.447 145.88C169.447 142.968 168.327 141.946 167.025 141.946ZM175.413 141.19C178.045 141.19 180.075 142.562 180.075 145.81C180.075 149.394 177.947 150.99 175.231 150.99H172.319V141.19H175.413ZM173.509 142.17V149.982H175.273C177.765 149.982 178.871 148.176 178.871 145.88C178.871 143.332 177.499 142.17 175.399 142.17H173.509ZM185.031 140.952C186.921 140.952 188.615 142.352 188.615 145.894C188.615 149.142 187.439 151.074 185.031 151.074C182.665 151.074 181.377 149.184 181.377 145.894C181.377 142.38 183.099 140.952 185.031 140.952ZM185.017 141.946C183.701 141.946 182.553 142.996 182.553 145.88C182.553 148.904 183.407 150.066 185.017 150.066C186.655 150.066 187.439 148.904 187.439 145.88C187.439 142.968 186.319 141.946 185.017 141.946ZM190.115 143.584C190.157 142.996 190.745 141.092 193.195 141.12C194.973 141.134 196.037 142.072 196.051 143.612C196.079 145.222 194.903 145.782 194.175 145.838C194.889 145.894 196.289 146.37 196.289 148.218C196.289 149.814 195.071 151.06 193.167 151.074C190.535 151.102 190.017 149.226 189.975 148.638L191.123 148.302C191.123 148.302 191.151 150.066 193.083 150.066C194.245 150.066 195.099 149.436 195.099 148.12C195.099 145.992 192.313 146.342 192.313 146.342V145.432C192.313 145.432 194.875 145.74 194.875 143.738C194.875 142.674 194.245 142.114 193.139 142.114C191.235 142.128 191.249 143.934 191.249 143.934L190.115 143.584ZM203.085 143.696C203.085 143.598 202.973 142.086 201.335 142.086C199.655 142.086 198.927 143.556 198.927 145.908C199.193 145.418 199.963 144.606 201.265 144.592C203.113 144.578 204.331 145.586 204.331 147.756C204.331 149.772 203.001 151.116 200.971 151.074C199.011 151.032 197.695 149.87 197.709 146.272C197.709 143.612 198.381 141.12 201.335 141.12C203.533 141.12 204.065 142.898 204.135 143.318L203.085 143.696ZM201.125 145.446C200.061 145.446 198.927 146.3 198.927 147.77C198.927 149.24 199.809 150.164 201.055 150.164C202.343 150.164 203.155 149.212 203.155 147.784C203.155 146.09 202.399 145.446 201.125 145.446ZM209.864 141.176H211.236V147.238H212.65L212.552 148.246H211.236V150.99H210.06V148.246H205.538V147.056L209.864 141.176ZM210.046 142.478L206.588 147.238H210.046V142.478Z" fill="white"/>
<path d="M1071.3 90.8288H1074.29L1077.75 97.8848V90.8288H1080.37V102.029H1077.27L1073.94 95.3888V102.029H1071.3V90.8288ZM1082.15 97.8528C1082.15 94.9888 1084.02 93.5648 1086.42 93.5648C1088.63 93.5648 1090.53 94.9888 1090.53 97.8528C1090.53 100.205 1089.07 102.109 1086.34 102.109C1083.35 102.109 1082.15 100.205 1082.15 97.8528ZM1086.42 95.7728C1085.55 95.7728 1084.9 96.3648 1084.9 97.8528C1084.9 98.9088 1085.2 99.9008 1086.37 99.9008C1087.44 99.9008 1087.87 98.9088 1087.87 97.8528C1087.87 96.3808 1087.22 95.7728 1086.42 95.7728ZM1092.21 93.6448H1094.27L1094.64 95.0368C1095.14 94.0608 1096.29 93.5648 1097.46 93.5648C1099.36 93.5648 1100.37 94.7808 1100.37 96.5568V102.029H1097.75V97.5648C1097.75 96.3808 1097.46 95.7568 1096.51 95.7568C1095.25 95.7568 1094.82 96.8608 1094.82 98.1088V102.029H1092.21V93.6448ZM1109.93 99.6768C1109.39 101.229 1107.92 102.109 1106.25 102.109C1103.32 102.109 1102.03 100.381 1102.03 97.7408C1102.03 95.1008 1103.76 93.5648 1106.22 93.5648C1108.6 93.5648 1110.19 95.4048 1110.03 97.8528L1110 98.4128H1104.7C1104.76 99.2128 1105.21 99.8528 1106.24 99.8528C1106.89 99.8528 1107.37 99.4848 1107.55 98.9088L1109.93 99.6768ZM1106.12 95.5648C1105.34 95.5968 1104.91 96.1568 1104.81 96.7488H1107.29C1107.28 95.9648 1106.81 95.5488 1106.12 95.5648Z" fill="black"/>
<path d="M162.376 4.82881H165.464L168.232 12.4608L170.904 4.82881H173.976V16.0288H171.576V8.79681L169.032 16.0288H167.208L164.76 8.79681V16.0288H162.376V4.82881ZM175.739 11.8528C175.739 8.98881 177.611 7.56481 180.011 7.56481C182.219 7.56481 184.123 8.98881 184.123 11.8528C184.123 14.2048 182.667 16.1088 179.931 16.1088C176.939 16.1088 175.739 14.2048 175.739 11.8528ZM180.011 9.77281C179.147 9.77281 178.491 10.3648 178.491 11.8528C178.491 12.9088 178.795 13.9008 179.963 13.9008C181.035 13.9008 181.467 12.9088 181.467 11.8528C181.467 10.3808 180.811 9.77281 180.011 9.77281ZM186.251 13.1808C186.251 13.1808 187.387 14.0928 189.003 14.0928C189.675 14.0928 190.011 13.9488 190.011 13.5328C190.011 12.3488 185.387 13.2928 185.643 10.0448C185.771 8.50881 186.891 7.56481 189.259 7.56481C190.971 7.56481 192.379 8.36481 192.379 8.36481L191.483 10.1728C191.483 10.1728 190.395 9.48481 189.147 9.50081C188.571 9.50081 188.139 9.70881 188.171 10.0928C188.283 11.0528 192.619 10.1088 192.619 13.4528C192.619 15.1968 190.987 16.1088 188.923 16.1088C186.731 16.1088 185.547 15.1968 185.307 15.0208L186.251 13.1808ZM195.278 5.54881L197.454 5.27681V7.72481H199.39L199.07 9.82081H197.454V12.7808C197.454 13.5488 197.806 13.9008 198.43 13.9008C198.862 13.9008 199.326 13.7248 199.518 13.6608L199.886 15.6448C199.63 15.7568 198.75 16.1088 197.678 16.1088C195.518 16.1088 194.83 14.6208 194.83 13.1808V9.82081H193.774V7.72481H194.958L195.278 5.54881Z" fill="black"/>
<path d="M162.376 183.829H165.464L168.232 191.461L170.904 183.829H173.976V195.029H171.576V187.797L169.032 195.029H167.208L164.76 187.797V195.029H162.376V183.829ZM175.739 190.853C175.739 187.989 177.611 186.565 180.011 186.565C182.219 186.565 184.123 187.989 184.123 190.853C184.123 193.205 182.667 195.109 179.931 195.109C176.939 195.109 175.739 193.205 175.739 190.853ZM180.011 188.773C179.147 188.773 178.491 189.365 178.491 190.853C178.491 191.909 178.795 192.901 179.963 192.901C181.035 192.901 181.467 191.909 181.467 190.853C181.467 189.381 180.811 188.773 180.011 188.773ZM186.251 192.181C186.251 192.181 187.387 193.093 189.003 193.093C189.675 193.093 190.011 192.949 190.011 192.533C190.011 191.349 185.387 192.293 185.643 189.045C185.771 187.509 186.891 186.565 189.259 186.565C190.971 186.565 192.379 187.365 192.379 187.365L191.483 189.173C191.483 189.173 190.395 188.485 189.147 188.501C188.571 188.501 188.139 188.709 188.171 189.093C188.283 190.053 192.619 189.109 192.619 192.453C192.619 194.197 190.987 195.109 188.923 195.109C186.731 195.109 185.547 194.197 185.307 194.021L186.251 192.181ZM195.278 184.549L197.454 184.277V186.725H199.39L199.07 188.821H197.454V191.781C197.454 192.549 197.806 192.901 198.43 192.901C198.862 192.901 199.326 192.725 199.518 192.661L199.886 194.645C199.63 194.757 198.75 195.109 197.678 195.109C195.518 195.109 194.83 193.621 194.83 192.181V188.821H193.774V186.725H194.958L195.278 184.549Z" fill="black"/>
<path fill-rule="evenodd" clip-rule="evenodd" d="M1080.27 82.0288H1082.31C1074.16 40.4217 1037.49 9.02881 993.5 9.02881V11.0288C1036.39 11.0288 1072.15 41.5336 1080.27 82.0288ZM1083.28 111.029H1081.26C1075.62 154.473 1038.48 188.029 993.5 188.029V190.029C1039.59 190.029 1077.63 155.581 1083.28 111.029Z" fill="black"/>
<path d="M209.293 9.3217C208.902 9.71223 208.902 10.3454 209.293 10.7359L215.657 17.0999C216.047 17.4904 216.681 17.4904 217.071 17.0999C217.462 16.7094 217.462 16.0762 217.071 15.6857L211.414 10.0288L217.071 4.37196C217.462 3.98143 217.462 3.34827 217.071 2.95774C216.681 2.56722 216.047 2.56722 215.657 2.95774L209.293 9.3217ZM210 11.0288L995 11.0289L995 9.02888L210 9.02881L210 11.0288Z" fill="black"/>
<path d="M209.293 188.322C208.902 188.712 208.902 189.345 209.293 189.736L215.657 196.1C216.047 196.49 216.681 196.49 217.071 196.1C217.462 195.709 217.462 195.076 217.071 194.686L211.414 189.029L217.071 183.372C217.462 182.981 217.462 182.348 217.071 181.958C216.681 181.567 216.047 181.567 215.657 181.958L209.293 188.322ZM210 190.029L995 190.029L995 188.029L210 188.029L210 190.029Z" fill="black"/>
<path d="M44.2268 78.4288H49.0688V91.0288H46.0988V80.8768H44.2268V78.4288ZM53.7058 84.4588C52.4458 83.9008 52.0138 82.7848 52.0678 81.6328C52.1578 79.3468 54.3898 78.3388 56.4598 78.3388C58.5118 78.3388 60.5458 79.3288 60.5458 81.4348C60.5458 82.8028 59.9878 83.7928 58.7818 84.2608C60.3118 84.7648 61.0858 85.7728 61.0858 87.2488C61.0858 89.7868 58.8538 91.1368 56.2978 91.1368C53.4898 91.1368 51.5098 89.8948 51.6358 87.3748C51.7078 85.9168 52.6978 84.8908 53.7058 84.4588ZM54.9658 81.7948C54.9838 82.6048 55.6858 83.0008 56.9638 83.3248C57.2698 83.0368 57.6298 82.6048 57.6838 81.7768C57.7378 80.9848 57.3418 80.3548 56.3518 80.3548C55.5418 80.3548 54.9478 80.8768 54.9658 81.7948ZM55.4878 85.5748C54.9298 86.0608 54.5878 86.6188 54.5878 87.3568C54.5878 88.7428 55.5058 88.9768 56.3338 88.9948C57.4138 89.0128 58.1338 88.2748 58.1338 87.3028C58.1338 86.3308 56.7658 85.9348 55.4878 85.5748ZM74.723 81.8308C73.715 81.1648 72.383 80.7688 71.213 80.7688C70.313 80.7688 69.791 81.1288 69.773 81.8308C69.719 83.7028 75.947 82.8388 75.947 87.1048C75.947 89.8768 73.949 91.2088 71.339 91.2088C68.117 91.2088 66.371 89.6248 66.371 89.6248L67.685 87.3388C68.423 87.8788 69.449 88.5988 71.159 88.5988C72.347 88.5988 72.959 88.2208 72.959 87.4288C72.959 85.4308 66.821 86.0608 66.821 81.9208C66.821 79.4548 68.783 78.2488 71.285 78.2488C73.139 78.2488 74.867 78.9688 75.803 79.5628L74.723 81.8308ZM78.7469 79.2388L81.1949 78.9328V81.6868H83.3729L83.0129 84.0448H81.1949V87.3748C81.1949 88.2388 81.5909 88.6348 82.2929 88.6348C82.7789 88.6348 83.3009 88.4368 83.5169 88.3648L83.9309 90.5968C83.6429 90.7228 82.6529 91.1188 81.4469 91.1188C79.0169 91.1188 78.2429 89.4448 78.2429 87.8248V84.0448H77.0549V81.6868H78.3869L78.7469 79.2388ZM93.768 88.3828C93.156 90.1288 91.5 91.1188 89.628 91.1188C86.334 91.1188 84.876 89.1748 84.876 86.2048C84.876 83.2348 86.82 81.5068 89.592 81.5068C92.274 81.5068 94.056 83.5768 93.876 86.3308L93.84 86.9608H87.882C87.954 87.8608 88.458 88.5808 89.61 88.5808C90.348 88.5808 90.888 88.1668 91.086 87.5188L93.768 88.3828ZM89.484 83.7568C88.602 83.7928 88.116 84.4228 88.008 85.0888H90.798C90.78 84.2068 90.258 83.7388 89.484 83.7568ZM95.7583 81.5968H98.0803L98.5123 83.1628C98.9263 82.2628 100.024 81.5068 101.41 81.5068C103.048 81.5068 105.082 82.5868 105.082 86.2408C105.082 89.0848 103.642 91.1368 101.23 91.1368C99.8803 91.1368 99.0883 90.5248 98.7103 89.8588V94.6288H95.7583V81.5968ZM100.312 83.9728C99.3583 83.9728 98.5123 84.7108 98.5123 86.2948C98.5123 87.6448 99.0343 88.5988 100.33 88.5988C101.374 88.5988 102.04 87.8608 102.04 86.2588C102.04 84.4948 101.212 83.9728 100.312 83.9728ZM107.455 87.8248C107.455 87.8248 108.733 88.8508 110.551 88.8508C111.307 88.8508 111.685 88.6888 111.685 88.2208C111.685 86.8888 106.483 87.9508 106.771 84.2968C106.915 82.5688 108.175 81.5068 110.839 81.5068C112.765 81.5068 114.349 82.4068 114.349 82.4068L113.341 84.4408C113.341 84.4408 112.117 83.6668 110.713 83.6848C110.065 83.6848 109.579 83.9188 109.615 84.3508C109.741 85.4308 114.619 84.3688 114.619 88.1308C114.619 90.0928 112.783 91.1188 110.461 91.1188C107.995 91.1188 106.663 90.0928 106.393 89.8948L107.455 87.8248ZM1.38273 103.597H3.70473L4.13673 105.163C4.55073 104.263 5.64873 103.507 7.03473 103.507C8.67273 103.507 10.7067 104.587 10.7067 108.241C10.7067 111.085 9.26673 113.137 6.85473 113.137C5.50473 113.137 4.71273 112.525 4.33473 111.859L4.33473 116.629H1.38273L1.38273 103.597ZM5.93673 105.973C4.98273 105.973 4.13673 106.711 4.13673 108.295C4.13673 109.645 4.65873 110.599 5.95473 110.599C6.99873 110.599 7.66473 109.861 7.66473 108.259C7.66473 106.495 6.83673 105.973 5.93673 105.973ZM12.5751 99.6008L15.5271 99.2768V109.573C15.5271 110.401 15.8871 110.617 16.4631 110.617C16.6071 110.617 16.7691 110.581 16.8951 110.509L17.3811 112.561C16.9671 112.813 16.2651 113.119 15.4191 113.119C13.5111 113.119 12.5751 111.787 12.5751 109.879V99.6008ZM18.458 103.597H21.41L21.41 108.619C21.41 109.951 21.968 110.653 23.012 110.653C24.452 110.653 24.884 109.105 24.884 107.323L24.884 103.597H27.836L27.836 113.029H25.496L25.082 111.067C24.524 112.435 23.156 113.119 21.842 113.119C19.718 113.119 18.458 111.769 18.458 109.123L18.458 103.597ZM30.5067 109.825C30.5067 109.825 31.7847 110.851 33.6027 110.851C34.3587 110.851 34.7367 110.689 34.7367 110.221C34.7367 108.889 29.5347 109.951 29.8227 106.297C29.9667 104.569 31.2267 103.507 33.8907 103.507C35.8167 103.507 37.4007 104.407 37.4007 104.407L36.3927 106.441C36.3927 106.441 35.1687 105.667 33.7647 105.685C33.1167 105.685 32.6307 105.919 32.6667 106.351C32.7927 107.431 37.6707 106.369 37.6707 110.131C37.6707 112.093 35.8347 113.119 33.5127 113.119C31.0467 113.119 29.7147 112.093 29.4447 111.895L30.5067 109.825ZM47.7798 100.321C50.3538 100.321 52.6578 102.121 52.6578 106.477C52.6578 110.653 51.0738 113.137 47.7798 113.137C44.5758 113.137 42.8118 110.707 42.8118 106.477C42.8118 102.157 45.1518 100.321 47.7798 100.321ZM47.7618 102.787C46.6998 102.787 45.7998 103.831 45.7998 106.477C45.7998 109.465 46.4658 110.635 47.7618 110.635C49.0578 110.635 49.7058 109.465 49.7058 106.477C49.7058 103.795 48.8058 102.787 47.7618 102.787ZM63.7211 100.393C61.8311 102.103 60.4811 104.515 60.4811 108.277C60.4811 111.409 61.3271 114.163 63.7211 116.179L62.5871 117.349C59.9951 115.531 58.4291 112.147 58.4291 108.277C58.4291 104.443 59.8511 101.527 62.5871 99.2768L63.7211 100.393ZM65.0113 103.597H67.3333L67.7473 105.163C68.3053 104.065 69.6013 103.507 70.9153 103.507C73.0573 103.507 74.1913 104.875 74.1913 106.873V113.029H71.2393V108.007C71.2393 106.675 70.9153 105.973 69.8533 105.973C68.4313 105.973 67.9453 107.215 67.9453 108.619V113.029H65.0113V103.597ZM76.0567 108.331C76.0567 105.109 78.1627 103.507 80.8627 103.507C83.3467 103.507 85.4887 105.109 85.4887 108.331C85.4887 110.977 83.8507 113.119 80.7727 113.119C77.4067 113.119 76.0567 110.977 76.0567 108.331ZM80.8627 105.991C79.8907 105.991 79.1527 106.657 79.1527 108.331C79.1527 109.519 79.4947 110.635 80.8087 110.635C82.0147 110.635 82.5007 109.519 82.5007 108.331C82.5007 106.675 81.7627 105.991 80.8627 105.991ZM87.3784 103.597H89.7004L90.1144 105.163C90.6724 104.065 91.9684 103.507 93.2824 103.507C95.4244 103.507 96.5584 104.875 96.5584 106.873V113.029H93.6064V108.007C93.6064 106.675 93.2824 105.973 92.2204 105.973C90.7984 105.973 90.3124 107.215 90.3124 108.619V113.029H87.3784V103.597ZM107.316 110.383C106.704 112.129 105.048 113.119 103.176 113.119C99.8818 113.119 98.4238 111.175 98.4238 108.205C98.4238 105.235 100.368 103.507 103.14 103.507C105.822 103.507 107.604 105.577 107.424 108.331L107.388 108.961H101.43C101.502 109.861 102.006 110.581 103.158 110.581C103.896 110.581 104.436 110.167 104.634 109.519L107.316 110.383ZM103.032 105.757C102.15 105.793 101.664 106.423 101.556 107.089H104.346C104.328 106.207 103.806 105.739 103.032 105.757ZM109.313 99.2768C112.049 101.527 113.471 104.443 113.471 108.277C113.471 112.147 111.905 115.531 109.313 117.349L108.179 116.179C110.591 114.163 111.419 111.409 111.419 108.277C111.419 104.515 110.069 102.103 108.179 100.393L109.313 99.2768Z" fill="black"/>
</svg>
